<mxfile host="app.diagrams.net" modified="2023-12-02T21:28:14.437Z" agent="Mozilla/5.0 (Windows NT 10.0; Win64; x64) AppleWebKit/537.36 (KHTML, like Gecko) Chrome/119.0.0.0 Safari/537.36" etag="zwgjGWnB103AAhG3K3Ro" version="22.1.5" type="device">
  <diagram name="Página-1" id="6t1-qaVpkJWQ3FR_ccw6">
    <mxGraphModel dx="1434" dy="768" grid="1" gridSize="10" guides="1" tooltips="1" connect="1" arrows="1" fold="1" page="1" pageScale="1" pageWidth="827" pageHeight="1169" math="0" shadow="0">
      <root>
        <mxCell id="0" />
        <mxCell id="1" parent="0" />
        <mxCell id="HTEtS07i9EwjlVP5Oe-a-1" value="Actor" style="shape=umlActor;verticalLabelPosition=bottom;verticalAlign=top;html=1;outlineConnect=0;" vertex="1" parent="1">
          <mxGeometry x="130" y="100" width="30" height="60" as="geometry" />
        </mxCell>
        <mxCell id="HTEtS07i9EwjlVP5Oe-a-12" style="edgeStyle=orthogonalEdgeStyle;rounded=0;orthogonalLoop=1;jettySize=auto;html=1;entryX=0;entryY=0.5;entryDx=0;entryDy=0;" edge="1" parent="1" source="HTEtS07i9EwjlVP5Oe-a-4" target="HTEtS07i9EwjlVP5Oe-a-10">
          <mxGeometry relative="1" as="geometry" />
        </mxCell>
        <mxCell id="HTEtS07i9EwjlVP5Oe-a-4" value="Actor" style="shape=umlActor;verticalLabelPosition=bottom;verticalAlign=top;html=1;outlineConnect=0;" vertex="1" parent="1">
          <mxGeometry x="130" y="230" width="30" height="60" as="geometry" />
        </mxCell>
        <mxCell id="HTEtS07i9EwjlVP5Oe-a-14" style="edgeStyle=orthogonalEdgeStyle;rounded=0;orthogonalLoop=1;jettySize=auto;html=1;" edge="1" parent="1" source="HTEtS07i9EwjlVP5Oe-a-5" target="HTEtS07i9EwjlVP5Oe-a-13">
          <mxGeometry relative="1" as="geometry" />
        </mxCell>
        <mxCell id="HTEtS07i9EwjlVP5Oe-a-5" value="Actor" style="shape=umlActor;verticalLabelPosition=bottom;verticalAlign=top;html=1;outlineConnect=0;" vertex="1" parent="1">
          <mxGeometry x="130" y="340" width="30" height="60" as="geometry" />
        </mxCell>
        <mxCell id="HTEtS07i9EwjlVP5Oe-a-22" style="edgeStyle=orthogonalEdgeStyle;rounded=0;orthogonalLoop=1;jettySize=auto;html=1;entryX=0;entryY=0.5;entryDx=0;entryDy=0;" edge="1" parent="1" source="HTEtS07i9EwjlVP5Oe-a-6" target="HTEtS07i9EwjlVP5Oe-a-21">
          <mxGeometry relative="1" as="geometry" />
        </mxCell>
        <mxCell id="HTEtS07i9EwjlVP5Oe-a-6" value="Actor" style="shape=umlActor;verticalLabelPosition=bottom;verticalAlign=top;html=1;outlineConnect=0;" vertex="1" parent="1">
          <mxGeometry x="130" y="640" width="30" height="60" as="geometry" />
        </mxCell>
        <mxCell id="HTEtS07i9EwjlVP5Oe-a-7" value="ACESSA PLATAFORMA" style="ellipse;whiteSpace=wrap;html=1;" vertex="1" parent="1">
          <mxGeometry x="420" y="90" width="120" height="80" as="geometry" />
        </mxCell>
        <mxCell id="HTEtS07i9EwjlVP5Oe-a-10" value="CONSULTA INFORMAÇÕES" style="ellipse;whiteSpace=wrap;html=1;" vertex="1" parent="1">
          <mxGeometry x="414" y="220" width="120" height="80" as="geometry" />
        </mxCell>
        <mxCell id="HTEtS07i9EwjlVP5Oe-a-9" style="edgeStyle=orthogonalEdgeStyle;rounded=0;orthogonalLoop=1;jettySize=auto;html=1;" edge="1" parent="1" source="HTEtS07i9EwjlVP5Oe-a-1" target="HTEtS07i9EwjlVP5Oe-a-7">
          <mxGeometry relative="1" as="geometry" />
        </mxCell>
        <mxCell id="HTEtS07i9EwjlVP5Oe-a-13" value="EDITA INFORMAÇÕES" style="ellipse;whiteSpace=wrap;html=1;" vertex="1" parent="1">
          <mxGeometry x="420" y="330" width="120" height="80" as="geometry" />
        </mxCell>
        <mxCell id="HTEtS07i9EwjlVP5Oe-a-15" value="EDITA INFORMAÇÕES CADASTRADAS" style="ellipse;whiteSpace=wrap;html=1;" vertex="1" parent="1">
          <mxGeometry x="420" y="430" width="120" height="80" as="geometry" />
        </mxCell>
        <mxCell id="HTEtS07i9EwjlVP5Oe-a-16" value="EXCLUI INFORMAÇÕES CADASTRADAS" style="ellipse;whiteSpace=wrap;html=1;" vertex="1" parent="1">
          <mxGeometry x="420" y="520" width="120" height="80" as="geometry" />
        </mxCell>
        <mxCell id="HTEtS07i9EwjlVP5Oe-a-18" value="" style="endArrow=classic;html=1;rounded=0;" edge="1" parent="1" source="HTEtS07i9EwjlVP5Oe-a-5">
          <mxGeometry width="50" height="50" relative="1" as="geometry">
            <mxPoint x="370" y="520" as="sourcePoint" />
            <mxPoint x="420" y="470" as="targetPoint" />
          </mxGeometry>
        </mxCell>
        <mxCell id="HTEtS07i9EwjlVP5Oe-a-20" value="" style="endArrow=classic;html=1;rounded=0;entryX=0.017;entryY=0.588;entryDx=0;entryDy=0;entryPerimeter=0;" edge="1" parent="1" source="HTEtS07i9EwjlVP5Oe-a-5" target="HTEtS07i9EwjlVP5Oe-a-16">
          <mxGeometry width="50" height="50" relative="1" as="geometry">
            <mxPoint x="170" y="385" as="sourcePoint" />
            <mxPoint x="430" y="480" as="targetPoint" />
          </mxGeometry>
        </mxCell>
        <mxCell id="HTEtS07i9EwjlVP5Oe-a-21" value="DESLOGA DA PLATAFORMA" style="ellipse;whiteSpace=wrap;html=1;" vertex="1" parent="1">
          <mxGeometry x="420" y="630" width="120" height="80" as="geometry" />
        </mxCell>
      </root>
    </mxGraphModel>
  </diagram>
</mxfile>
